<?xml version="1.0" standalone="no"?>
<!DOCTYPE svg PUBLIC "-//W3C//DTD SVG 20010904//EN"
 "http://www.w3.org/TR/2001/REC-SVG-20010904/DTD/svg10.dtd">
<svg version="1.0" xmlns="http://www.w3.org/2000/svg"
 width="938.000000pt" height="902.000000pt" viewBox="0 0 938.000000 902.000000"
 preserveAspectRatio="xMidYMid meet">

<g transform="translate(0.000000,902.000000) scale(0.100000,-0.100000)"
fill="#000000" stroke="none">
<path d="M8625 8806 c-281 -140 -497 -202 -860 -246 -181 -22 -203 -30 -235
-83 -37 -61 -15 -135 52 -178 37 -22 72 -22 308 7 273 34 470 88 728 199 73
32 135 55 137 53 6 -6 69 -503 89 -708 35 -348 48 -626 53 -1160 5 -495 4
-547 -11 -562 -17 -18 -268 -118 -429 -172 -117 -39 -360 -104 -527 -140 -453
-99 -1038 -138 -1556 -104 -263 17 -407 15 -479 -7 -151 -45 -289 -148 -373
-278 -176 -270 -111 -650 146 -852 180 -142 372 -169 1172 -163 489 4 526 6
730 32 393 50 711 111 1020 195 79 22 145 39 147 38 5 -5 -48 -252 -88 -409
-165 -659 -403 -1215 -722 -1690 -40 -59 -75 -108 -79 -108 -3 0 -51 34 -105
75 -258 199 -412 300 -648 425 -483 256 -969 388 -1500 407 l-170 6 -32 -27
c-64 -54 -68 -142 -9 -194 38 -33 56 -37 261 -52 77 -6 203 -20 280 -31 619
-89 1217 -372 1752 -831 113 -96 148 -118 191 -118 64 0 132 74 306 335 240
359 443 780 585 1218 122 373 271 993 271 1126 0 56 -38 122 -85 148 -64 36
-121 31 -344 -33 -379 -108 -721 -175 -1146 -223 -375 -43 -1210 -37 -1445 10
-130 27 -230 101 -285 212 -52 107 -44 256 20 357 43 68 130 136 206 160 69
22 74 23 262 11 785 -49 1397 -1 2017 160 289 75 744 241 859 313 75 48 71 6
71 673 0 329 -5 672 -10 763 -24 403 -60 756 -116 1144 -40 281 -53 318 -124
353 -91 44 -97 43 -285 -51z"/>
<path d="M3865 8823 c-296 -19 -532 -53 -580 -83 -50 -31 -75 -87 -75 -166 0
-191 107 -689 217 -1009 128 -371 265 -635 482 -925 143 -191 156 -220 156
-345 0 -90 -3 -106 -29 -160 -102 -208 -352 -277 -550 -152 -61 38 -178 178
-295 352 -335 495 -542 1027 -686 1760 l-45 230 -49 48 c-50 48 -69 54 -145
49 -83 -6 -484 -252 -721 -442 -148 -119 -379 -340 -403 -385 -22 -42 -28
-354 -13 -607 26 -427 90 -775 202 -1093 80 -229 167 -391 315 -586 115 -151
129 -182 129 -299 0 -84 -3 -102 -28 -152 -61 -125 -175 -210 -296 -225 -63
-7 -161 11 -221 42 -62 31 -187 166 -281 301 -126 182 -183 287 -289 536 -66
157 -96 199 -158 219 -79 26 -187 -17 -225 -91 -17 -32 -18 -64 -14 -420 4
-335 7 -403 26 -525 90 -567 228 -1048 456 -1580 54 -126 255 -531 323 -650
69 -121 132 -212 221 -319 73 -88 80 -99 69 -119 -6 -12 -57 -96 -113 -187
-368 -595 -804 -1423 -822 -1559 -11 -82 44 -141 132 -141 76 0 77 1 272 392
182 363 329 636 490 908 141 238 244 400 253 400 5 0 43 -28 85 -62 251 -205
403 -315 615 -443 309 -188 853 -415 995 -417 44 0 53 4 82 35 17 20 35 51 38
70 8 43 -14 100 -48 122 -14 9 -101 45 -194 79 -289 109 -515 213 -709 327
-214 126 -487 326 -657 481 l-59 53 68 100 c462 686 980 1344 1599 2032 140
156 859 871 1040 1034 552 499 1133 958 1720 1361 94 65 182 129 197 143 79
74 36 208 -70 222 -60 8 -111 -23 -502 -301 -795 -565 -1454 -1127 -2170
-1852 -496 -502 -866 -922 -1311 -1489 -203 -258 -542 -724 -695 -953 l-68
-104 -28 34 c-240 288 -579 1003 -758 1598 -116 383 -183 720 -211 1061 -16
197 -14 201 50 89 128 -226 296 -452 403 -541 66 -55 144 -97 236 -128 79 -27
279 -30 363 -5 202 59 376 233 444 442 14 43 16 81 13 200 -3 139 -5 151 -36
222 -20 49 -69 124 -138 215 -246 327 -379 712 -449 1310 -9 77 -20 266 -24
420 l-7 280 60 58 c104 100 261 233 379 321 104 79 380 256 398 256 5 0 11
-17 15 -37 3 -21 26 -129 50 -240 158 -724 447 -1370 821 -1839 205 -255 349
-338 593 -339 178 0 327 61 449 184 77 78 122 150 159 253 23 65 26 88 25 203
0 195 -26 261 -185 473 -227 302 -353 543 -474 907 -83 250 -174 640 -186 794
-3 44 -2 45 32 52 19 4 121 15 225 25 155 14 255 16 540 11 528 -9 752 -30
1815 -172 407 -54 691 -85 845 -91 130 -5 142 -4 173 15 85 54 74 178 -18 226
-19 10 -111 22 -252 35 -195 18 -416 44 -1293 155 -435 55 -704 79 -1025 95
-198 9 -546 11 -665 3z"/>
<path d="M2 7646 c3 -33 17 -47 183 -185 171 -143 180 -149 193 -129 17 24 40
1 -196 197 l-183 153 3 -36z"/>
<path d="M4993 6830 c-42 -25 -53 -48 -53 -112 0 -46 4 -58 28 -80 58 -54 109
-62 173 -26 64 36 81 104 42 180 -28 57 -127 77 -190 38z"/>
<path d="M2013 6775 c-64 -32 -117 -90 -151 -164 -37 -80 -43 -224 -13 -341
26 -102 74 -216 126 -295 59 -91 179 -204 260 -245 64 -32 76 -35 159 -35 83
0 96 3 146 31 64 36 109 91 141 171 20 50 23 75 23 178 -1 108 -4 130 -33 215
-76 224 -212 395 -376 472 -55 25 -85 33 -150 36 -71 3 -86 1 -132 -23z m198
-273 c56 -36 97 -83 148 -169 45 -76 67 -147 75 -243 8 -87 -2 -124 -37 -128
-85 -10 -243 186 -282 349 -17 74 -20 172 -5 200 15 27 49 24 101 -9z"/>
<path d="M7358 6760 c-42 -45 -49 -84 -24 -143 20 -49 55 -67 130 -67 61 0 65
2 95 35 26 30 31 44 31 88 0 45 -4 57 -27 79 -41 38 -66 48 -119 48 -42 0 -51
-4 -86 -40z"/>
<path d="M7794 6600 c-11 -4 -33 -22 -47 -40 -22 -25 -27 -42 -27 -82 0 -45 4
-54 39 -89 35 -36 43 -39 93 -39 62 0 97 21 124 73 19 36 14 95 -11 133 -29
45 -115 67 -171 44z"/>
<path d="M6394 6386 c-36 -35 -44 -50 -44 -80 0 -66 46 -124 111 -139 73 -18
159 51 159 127 0 80 -59 134 -149 135 -27 1 -42 -8 -77 -43z"/>
<path d="M7101 3878 c-38 -14 -75 -40 -117 -82 -71 -70 -84 -102 -84 -212 0
-64 4 -81 41 -154 87 -174 288 -312 523 -361 339 -70 578 71 552 324 -20 201
-256 417 -531 487 -112 29 -307 28 -384 -2z m373 -278 c99 -37 191 -100 243
-168 62 -81 37 -112 -90 -112 -119 0 -237 41 -344 119 -52 38 -123 126 -123
152 0 59 165 63 314 9z"/>
<path d="M4558 3485 c-172 -60 -301 -167 -375 -310 -60 -116 -73 -170 -73
-300 0 -124 15 -195 59 -283 94 -185 232 -292 496 -380 225 -76 399 -104 775
-122 118 -6 260 -18 315 -26 234 -34 454 -104 680 -215 186 -91 441 -257 433
-281 -5 -14 -224 -132 -343 -186 -502 -225 -1135 -361 -1780 -382 -308 -10
-353 -9 -693 22 -233 21 -233 21 -260 1 -37 -27 -72 -81 -72 -110 0 -38 26
-90 55 -109 38 -25 130 -40 355 -59 245 -21 799 -16 1008 9 529 64 1008 179
1382 333 115 47 423 206 538 277 127 79 168 149 143 243 -15 56 -60 103 -189
201 -342 257 -737 435 -1127 507 -95 17 -214 29 -419 40 -166 9 -334 24 -401
35 -394 67 -602 173 -666 337 -17 45 -22 78 -22 149 0 84 3 96 33 153 42 79
120 158 184 187 42 18 77 24 196 29 80 4 153 11 162 16 28 15 48 64 48 117 0
44 -4 53 -35 80 -47 42 -91 52 -225 51 -94 0 -127 -5 -182 -24z"/>
<path d="M2854 2830 c-41 -16 -74 -68 -74 -115 0 -58 16 -91 58 -117 27 -17
43 -19 84 -15 61 8 92 26 114 69 19 37 14 96 -11 134 -29 45 -115 67 -171 44z"/>
<path d="M3260 2827 c-13 -7 -35 -28 -48 -47 -46 -67 -13 -162 64 -189 56 -20
109 -8 151 34 28 28 33 40 33 83 0 55 -22 92 -70 117 -35 18 -96 19 -130 2z"/>
</g>
</svg>
